<svg width="390" height="170" viewBox="0 0 390 170" fill="none" xmlns="http://www.w3.org/2000/svg">
<path d="M0 0H390V150C390 161.046 381.046 170 370 170H20C8.9543 170 0 161.046 0 150V0Z" fill="#2563EB"/>
<path d="M69.5889 0C74.3682 11.5875 77 24.2438 77 37.5C77 84.2409 44.2974 123.527 0 134.769V0H69.5889Z" fill="white" fill-opacity="0.15"/>
<path d="M390 150C390 161.046 381.046 170 370 170H312.801L390 11.7168V150Z" fill="white" fill-opacity="0.15"/>
<path d="M390 150C390 161.046 381.046 170 370 170H349.925L390 87.833V150Z" fill="white" fill-opacity="0.15"/>
</svg>
