<svg width="50" height="50" viewBox="0 0 50 50" fill="none" xmlns="http://www.w3.org/2000/svg">
<circle cx="25" cy="25" r="25" fill="#D9D9D9"/>
<path d="M44.9999 25C44.9999 36.0457 36.0456 44.9999 25 44.9999C13.9543 44.9999 5.00003 36.0457 5.00003 25C5.00003 13.9543 13.9543 5 25 5C36.0456 5 44.9999 13.9543 44.9999 25Z" fill="#F43F5E"/>
<path d="M40.9999 25C40.9999 33.8365 33.8365 40.9999 25 40.9999C16.1634 40.9999 9.00002 33.8365 9.00002 25C9.00002 16.1634 16.1634 8.99999 25 8.99999C33.8365 8.99999 40.9999 16.1634 40.9999 25Z" fill="#34D399"/>
<path d="M40.9999 25C40.9999 33.8365 33.8365 40.9999 25 40.9999C16.1634 40.9999 9.00002 33.8365 9.00002 25C9.00002 16.1634 16.1634 8.99999 25 8.99999C33.8365 8.99999 40.9999 16.1634 40.9999 25Z" fill="#E5E7EB"/>
<path d="M23.6176 34.44C21.689 34.44 20.136 34.1584 18.9584 33.5952C17.7979 33.0149 17.2176 32.2128 17.2176 31.1888C17.2176 30.8133 17.3115 30.4634 17.4992 30.1392C17.704 29.7978 17.9771 29.5248 18.3184 29.32C18.8475 30.361 19.5643 31.1632 20.4688 31.7264C21.3904 32.2725 22.3888 32.5456 23.464 32.5456C24.9317 32.5456 26.1093 32.2896 26.9968 31.7776C27.8842 31.2656 28.328 30.5317 28.328 29.576C28.328 29.0981 28.1488 28.68 27.7904 28.3216C27.449 27.9632 27.0053 27.6645 26.4592 27.4256C25.9301 27.1696 25.2048 26.8709 24.2832 26.5296C23.0202 26.0688 21.9962 25.6336 21.2112 25.224C20.4432 24.8144 19.7776 24.2682 19.2144 23.5856C18.6512 22.8858 18.3696 22.024 18.3696 21C18.3696 19.8906 18.7451 18.9008 19.496 18.0304C20.264 17.1429 21.3307 16.4517 22.696 15.9568C24.0784 15.4619 25.6656 15.2144 27.4576 15.2144C28.4986 15.2144 29.4288 15.3253 30.248 15.5472C31.0842 15.752 31.7328 16.0421 32.1936 16.4176C32.6714 16.793 32.9104 17.2282 32.9104 17.7232C32.9104 18.44 32.6714 18.9946 32.1936 19.3872C31.7328 19.7626 31.1184 19.9504 30.3504 19.9504C29.5653 19.9504 28.9082 19.72 28.3792 19.2592C27.8501 18.7813 27.449 18.0901 27.176 17.1856C25.4522 17.3904 24.104 17.8085 23.1312 18.44C22.1584 19.0544 21.672 19.7882 21.672 20.6416C21.672 21.0853 21.8426 21.4778 22.184 21.8192C22.5253 22.1434 22.952 22.425 23.464 22.664C23.976 22.8858 24.7013 23.176 25.64 23.5344C26.8858 23.9781 27.9098 24.4048 28.712 24.8144C29.5141 25.224 30.1968 25.7701 30.76 26.4528C31.3402 27.1354 31.6304 27.9802 31.6304 28.9872C31.6304 29.977 31.3146 30.8901 30.6832 31.7264C30.0688 32.5456 29.1557 33.2026 27.944 33.6976C26.7493 34.1925 25.3072 34.44 23.6176 34.44Z" fill="#2563EB"/>
<path d="M44.7702 28.0225C45.5718 22.7791 44.2577 17.432 41.1169 13.1575L37.8935 15.526C40.4061 18.9456 41.4575 23.2232 40.8162 27.418L44.7702 28.0225Z" fill="#F59E0B"/>
<path d="M44.7826 27.9403C44.0262 33.0292 41.3379 37.6309 37.2764 40.7888C33.2149 43.9468 28.0926 45.4182 22.9743 44.8971L23.3794 40.9177C27.4741 41.3345 31.5719 40.1574 34.8211 37.6311C38.0703 35.1047 40.221 31.4234 40.8261 27.3523L44.7826 27.9403Z" fill="#10B981"/>
<path d="M22.9341 44.893C18.5152 44.4341 14.3749 42.5169 11.1664 39.444C7.95793 36.3712 5.8639 32.3175 5.21471 27.9225C4.56552 23.5275 5.39814 19.0415 7.58119 15.1723C9.76424 11.303 13.1735 8.27069 17.2709 6.55381L18.8167 10.243C15.5388 11.6165 12.8114 14.0424 11.0649 17.1378C9.31851 20.2332 8.65241 23.822 9.17176 27.338C9.69111 30.854 11.3663 34.0969 13.9331 36.5552C16.4999 39.0135 19.8122 40.5472 23.3473 40.9144L22.9341 44.893Z" fill="#2563EB"/>
</svg>
