<svg width="50" height="50" viewBox="0 0 50 50" fill="none" xmlns="http://www.w3.org/2000/svg">
<circle cx="25" cy="25" r="25" fill="#0F172A"/>
<circle cx="25" cy="25" r="20" fill="#C45968"/>
<circle cx="25" cy="25" r="16" fill="#34D399"/>
<circle cx="25" cy="25" r="16" fill="#0F172A"/>
<path d="M23.6176 34.44C21.6891 34.44 20.136 34.1584 18.9584 33.5952C17.7979 33.0149 17.2176 32.2128 17.2176 31.1888C17.2176 30.8133 17.3115 30.4635 17.4992 30.1392C17.704 29.7979 17.9771 29.5248 18.3184 29.32C18.8475 30.3611 19.5643 31.1632 20.4688 31.7264C21.3904 32.2725 22.3888 32.5456 23.464 32.5456C24.9317 32.5456 26.1093 32.2896 26.9968 31.7776C27.8843 31.2656 28.328 30.5317 28.328 29.576C28.328 29.0981 28.1488 28.68 27.7904 28.3216C27.4491 27.9632 27.0053 27.6645 26.4592 27.4256C25.9301 27.1696 25.2048 26.8709 24.2832 26.5296C23.0203 26.0688 21.9963 25.6336 21.2112 25.224C20.4432 24.8144 19.7776 24.2683 19.2144 23.5856C18.6512 22.8859 18.3696 22.024 18.3696 21C18.3696 19.8907 18.7451 18.9008 19.496 18.0304C20.264 17.1429 21.3307 16.4517 22.696 15.9568C24.0784 15.4619 25.6656 15.2144 27.4576 15.2144C28.4987 15.2144 29.4288 15.3253 30.248 15.5472C31.0843 15.752 31.7328 16.0421 32.1936 16.4176C32.6715 16.7931 32.9104 17.2283 32.9104 17.7232C32.9104 18.44 32.6715 18.9947 32.1936 19.3872C31.7328 19.7627 31.1184 19.9504 30.3504 19.9504C29.5653 19.9504 28.9083 19.72 28.3792 19.2592C27.8501 18.7813 27.4491 18.0901 27.176 17.1856C25.4523 17.3904 24.104 17.8085 23.1312 18.44C22.1584 19.0544 21.672 19.7883 21.672 20.6416C21.672 21.0853 21.8427 21.4779 22.184 21.8192C22.5253 22.1435 22.952 22.4251 23.464 22.664C23.976 22.8859 24.7013 23.176 25.64 23.5344C26.8859 23.9781 27.9099 24.4048 28.712 24.8144C29.5141 25.224 30.1968 25.7701 30.76 26.4528C31.3403 27.1355 31.6304 27.9803 31.6304 28.9872C31.6304 29.9771 31.3147 30.8901 30.6832 31.7264C30.0688 32.5456 29.1557 33.2027 27.944 33.6976C26.7493 34.1925 25.3072 34.44 23.6176 34.44Z" fill="#1E3A8A"/>
<path d="M44.7703 28.0225C45.5719 22.7791 44.2578 17.432 41.1169 13.1575L37.8935 15.526C40.4062 18.9456 41.4575 23.2233 40.8162 27.418L44.7703 28.0225Z" fill="#CA9A1D"/>
<path d="M44.7827 27.9404C44.0263 33.0292 41.338 37.6309 37.2764 40.7889C33.2149 43.9469 28.0926 45.4182 22.9743 44.8972L23.3795 40.9177C27.4741 41.3346 31.5719 40.1575 34.8211 37.6311C38.0704 35.1047 40.221 31.4234 40.8261 27.3523L44.7827 27.9404Z" fill="#248C66"/>
<path d="M22.9341 44.893C18.5152 44.4341 14.3749 42.517 11.1664 39.4441C7.95791 36.3712 5.86387 32.3175 5.21468 27.9225C4.56549 23.5276 5.39811 19.0416 7.58117 15.1723C9.76423 11.303 13.1734 8.27069 17.2709 6.55382L18.8168 10.2431C15.5388 11.6166 12.8114 14.0424 11.0649 17.1378C9.31849 20.2332 8.65239 23.8221 9.17175 27.338C9.6911 30.854 11.3663 34.097 13.9331 36.5553C16.4999 39.0136 19.8122 40.5473 23.3473 40.9144L22.9341 44.893Z" fill="#1E3A8A"/>
</svg>
